<svg width="301" height="291" viewBox="0 0 301 291" fill="none" xmlns="http://www.w3.org/2000/svg">
<path d="M142 277.342C161.825 272.661 178.958 262.739 198.417 256.718C224.255 248.722 255.903 254.74 275.449 236.047C295.311 217.051 307.412 185.624 300.593 159C293.647 131.881 262.007 120.382 241.067 101.804C226.403 88.7947 209.439 79.9567 195.718 65.957C175.66 45.4908 170.316 -3.67812 142 0.723252C111.101 5.52601 123.822 64.994 97.1289 81.2812C71.5339 96.8981 30.6964 61.6565 8.71501 82.0479C-10.4507 99.8274 10.6546 132.997 13.3502 159C15.7647 182.291 14.641 205.697 23.7687 227.261C33.637 250.574 44.461 277.693 67.7717 287.567C91.1686 297.478 117.271 283.181 142 277.342Z" fill="url(#paint0_linear_0_1)"/>
<path fill-rule="evenodd" clip-rule="evenodd" d="M66 209.217C66 185.957 80.1169 166.158 99.8433 158.759C105.205 156.748 110.981 155.652 117 155.652C123.019 155.652 128.795 156.748 134.156 158.759C137.069 159.851 139.859 161.214 142.5 162.818C145.141 161.214 147.931 159.851 150.844 158.759C156.205 156.748 161.98 155.652 168 155.652C174.02 155.652 179.795 156.748 185.156 158.759C204.883 166.158 219 185.957 219 209.217V236H174.375V222.609H206.25V209.217C206.25 187.03 189.125 169.043 168 169.043C162.925 169.043 158.08 170.082 153.649 171.967C162.533 181.607 168 194.741 168 209.217V236H66V209.217ZM117 148.957C111.144 148.957 105.657 147.298 100.941 144.403C91.4805 138.597 85.125 127.817 85.125 115.478C85.125 96.9887 99.3959 82 117 82C127.427 82 136.684 87.2584 142.5 95.388C148.316 87.2584 157.573 82 168 82C185.604 82 199.875 96.9887 199.875 115.478C199.875 127.817 193.52 138.597 184.059 144.403C179.343 147.298 173.857 148.957 168 148.957C162.143 148.957 156.657 147.298 151.941 144.403C148.26 142.144 145.049 139.132 142.5 135.568C139.951 139.133 136.74 142.144 133.059 144.403C128.343 147.298 122.856 148.957 117 148.957ZM155.25 209.217V222.609H78.75V209.217C78.75 187.03 95.8751 169.043 117 169.043C138.125 169.043 155.25 187.03 155.25 209.217ZM136.125 115.478C136.125 126.572 127.562 135.565 117 135.565C106.438 135.565 97.875 126.572 97.875 115.478C97.875 104.385 106.438 95.3913 117 95.3913C127.562 95.3913 136.125 104.385 136.125 115.478ZM168 95.3913C157.438 95.3913 148.875 104.385 148.875 115.478C148.875 126.572 157.438 135.565 168 135.565C178.562 135.565 187.125 126.572 187.125 115.478C187.125 104.385 178.562 95.3913 168 95.3913Z" fill="#0F1F3C" stroke="black" stroke-width="0.00666667"/>
<defs>
<linearGradient id="paint0_linear_0_1" x1="217.168" y1="65.922" x2="82.5968" y2="246.071" gradientUnits="userSpaceOnUse">
<stop stop-color="#FFA800"/>
<stop stop-color="#FA7C0B"/>
<stop offset="0.0001" stop-color="#FFA800"/>
<stop offset="0.484375" stop-color="#FD7828"/>
<stop offset="1" stop-color="#FA484F"/>
</linearGradient>
</defs>
</svg>
