<svg width="351" height="303" viewBox="0 0 351 303" fill="none" xmlns="http://www.w3.org/2000/svg">
<path d="M175.5 298.946C201.659 300.06 213.91 314.533 234.948 298.946C252.014 286.302 272.646 279.859 288.129 265.319C304.956 249.517 321.659 232.412 329.075 210.552C336.717 188.025 338.845 162.415 330.608 140.097C322.524 118.193 297.851 107.76 284.158 88.8482C269.702 68.8833 270.298 35.4167 247.695 25.5844C224.805 15.6272 200.4 39.8253 175.5 41.5816C152.692 43.1902 129.998 29.0353 108.047 35.434C85.4862 42.0108 68.868 60.5441 52.524 77.4302C35.1292 95.4018 8.38784 112.549 9.21299 137.546C10.1099 164.718 42.4243 179.462 56.6566 202.625C66.2771 218.283 69.2537 236.796 79.5484 252.019C90.3681 268.018 104.839 280.272 118.44 293.986C137.242 312.944 148.823 297.81 175.5 298.946Z" fill="url(#paint0_linear_258_23)"/>
<path d="M239.688 88H106.312C89.5755 88 76 101.654 76 118.5C76 135.341 89.5755 149 106.312 149H115.406V130.7C108.722 130.7 103.281 125.226 103.281 118.5C103.281 111.769 108.722 106.3 115.406 106.3H230.594C237.284 106.3 242.719 111.769 242.719 118.5C242.719 125.226 237.284 130.7 230.594 130.7V149H239.688C256.431 149 270 135.341 270 118.5C270 101.653 256.431 88 239.688 88Z" fill="#0F1F3C"/>
<path d="M122 276H225V113H122V276ZM134.118 141.369C142.999 140.485 150.135 133.74 151.608 125.074H195.404C196.872 133.74 204.001 140.485 212.882 141.369V176.436C205.167 165.111 190.446 157.452 173.5 157.452C156.56 157.452 141.833 165.105 134.118 176.43V141.369ZM180.257 186.376V206.562L174.21 205.312V184.742C173.867 184.718 173.512 184.701 173.169 184.701C172.299 184.701 171.423 184.778 170.536 184.925V204.569L164.489 203.331V187.272C159.921 190.196 157.152 195.184 157.152 200.655C157.152 202.506 157.495 204.375 158.17 206.185L158.714 207.635H150.206L149.993 206.839C149.442 204.805 149.164 202.718 149.164 200.655C149.164 190.809 155.294 181.954 164.489 178.387V173.293H170.536V176.907C171.465 176.795 172.323 176.742 173.169 176.742C173.512 176.742 173.867 176.754 174.21 176.766V173.293H180.257V177.839C190.251 180.928 197.162 190.19 197.162 200.655C197.162 203.437 196.67 206.161 195.712 208.779L195.398 209.645L187.387 208.018L187.902 206.803C188.742 204.817 189.168 202.747 189.168 200.654C189.168 194.606 185.647 189.052 180.257 186.376ZM134.118 212.57C141.833 223.895 156.56 231.547 173.5 231.547C190.446 231.547 205.167 223.895 212.882 212.564V247.618C204.001 248.503 196.872 255.259 195.404 263.926H151.602C150.135 255.259 142.999 248.503 134.118 247.618V212.57Z" fill="#0F1F3C"/>
<defs>
<linearGradient id="paint0_linear_258_23" x1="243.486" y1="86.9553" x2="116.945" y2="275.265" gradientUnits="userSpaceOnUse">
<stop stop-color="#FFA800"/>
<stop stop-color="#FA7C0B"/>
<stop offset="0.0001" stop-color="#FFA800"/>
<stop offset="0.484375" stop-color="#FD7828"/>
<stop offset="1" stop-color="#FA484F"/>
</linearGradient>
</defs>
</svg>
