<svg width="38" height="42" viewBox="0 0 38 42" fill="none" xmlns="http://www.w3.org/2000/svg">
<g clip-path="url(#clip0_10_18)">
<path d="M19.041 29.9526C17.4866 30.1404 27.0529 25.9907 26.4566 27.1862C25.5083 29.0437 32.4244 40.4452 31.4566 42.2928C31.0655 43.0338 12.0022 42.4311 10.8877 42.2928C8.76625 42.0359 3.04719 47.2871 1.34613 46.7931C-0.208278 46.3386 2.33353 40.1883 1.34613 39.6153C1.17016 39.5165 1.06263 39.3288 1.06263 39.1213V24.8348C1.06263 24.6174 1.17994 24.4198 1.37546 24.3309C1.55143 24.242 1.75674 24.2519 1.91315 24.3507C3.26227 25.2003 4.95355 25.9018 7.00654 26.465C9.18663 27.0677 10.8463 26.2141 13.4566 26.2931C16.2526 20.6036 20.0865 26.3721 20.9566 26.2931C21.5822 26.2338 18.1807 27.285 18.5815 27.1862C18.8259 27.1269 19.0019 26.8997 19.0019 26.6329V25.7536C19.0019 25.4177 18.7184 25.1608 18.3958 25.1905C18.1416 25.2102 17.8679 25.23 17.5746 25.2497C17.0173 25.2893 16.509 25.309 16.0299 25.309C10.8388 25.309 3.04662 44.2194 0.455936 42.2928C-2.14453 40.3859 -2.49986 17.0691 -2.49986 13.3838C-2.49986 10.2914 1.57099 8.53274 3.28182 6.06273C4.43541 4.42265 5.69654 2.82208 7.28028 1.5772C8.0917 0.944876 9.23551 -0.102409 10.3109 0.440992C11.9631 1.26103 12.9993 3.81996 13.8303 5.34149C14.8373 7.16929 15.7855 9.04649 16.988 10.7459C17.7408 11.8129 18.8748 13.3838 20.3315 13.3838C23.9389 13.3838 27.2725 -0.10241 29.8241 0.342192C32.2095 0.757153 34.2234 1.32032 35.8756 2.05144C36.0809 2.14036 36.2177 2.34784 36.2177 2.57508V16.8418C36.2177 17.0691 36.0809 17.2766 35.8756 17.3655L35.7485 17.4149C35.5921 17.484 35.4161 17.4742 35.2695 17.3951C34.0083 16.7332 32.4735 16.1898 30.6649 15.7748C28.739 15.3302 26.6371 15.1128 24.3397 15.1128C23.3523 15.1128 22.4236 15.1721 21.573 15.2907C21.0158 15.3697 20.5856 15.4586 20.2728 15.5475C20.0382 15.6167 19.872 15.844 19.872 16.091V16.8912C19.872 17.2173 20.1555 17.484 20.4781 17.4544C20.7421 17.4346 21.0353 17.4149 21.358 17.3852C21.9543 17.3457 15.0083 17.7929 15.9566 17.7929C-82.0438 -19.7069 51.4878 -19.9463 54.0003 -18C60.257 -13.1686 43.374 37.5111 38.4566 42.2931C36.9804 43.7257 29.1887 43.6266 27.2823 41.4925C25.8061 39.8425 24.9849 37.5405 24.0073 35.5842C23.1177 33.796 22.4822 31.6718 20.7812 30.4763C20.3217 30.1502 19.7742 29.9131 19.217 29.923C19.1681 29.9329 19.0997 29.9428 19.041 29.9526Z" fill="url(#paint0_linear_10_18)"/>
<path d="M29.1234 15.998L21.4966 9.8966C20.0062 8.70892 17.6774 8.69728 16.1986 9.88496L8.5718 15.998C7.47727 16.8713 6.81356 18.6179 7.04644 19.9919L8.51358 28.7714C8.85125 30.7392 10.6793 32.2878 12.6705 32.2878H25.0131C26.9809 32.2878 28.8439 30.7043 29.1816 28.7597L30.6487 19.9802C30.8583 18.6179 30.1946 16.8713 29.1234 15.998ZM19.7151 27.6303C19.7151 28.1077 19.3192 28.5036 18.8418 28.5036C18.3644 28.5036 17.9685 28.1077 17.9685 27.6303V24.1371C17.9685 23.6597 18.3644 23.2638 18.8418 23.2638C19.3192 23.2638 19.7151 23.6597 19.7151 24.1371V27.6303Z" fill="#292D32"/>
</g>
<defs>
<linearGradient id="paint0_linear_10_18" x1="34.0777" y1="-3.88132" x2="4.76042" y2="39.5843" gradientUnits="userSpaceOnUse">
<stop stop-color="#9DE8EE"/>
<stop stop-color="#FA7C0B"/>
<stop offset="0.0001" stop-color="#FFA800"/>
<stop offset="0.484375" stop-color="#FD7828"/>
<stop offset="0.942708" stop-color="#FA484F"/>
</linearGradient>
<clipPath id="clip0_10_18">
<rect width="38" height="42" rx="7" fill="white"/>
</clipPath>
</defs>
</svg>
