<svg width="184" height="186" viewBox="0 0 184 186" fill="none" xmlns="http://www.w3.org/2000/svg">
<path d="M194.496 87.7315C199.318 69.1812 186.14 50.4804 175.02 34.8691C164.255 19.7561 150.579 4.91562 132.507 0.707214C115.282 -3.30413 99.5916 10.9533 82.0511 13.219C64.1309 15.5339 44.5998 5.05463 28.9487 14.0842C12.8354 23.3804 1.41916 41.9609 0.0725382 60.5147C-1.22738 78.4251 15.2871 91.8652 22.0974 108.481C28.003 122.89 27.9036 139.28 37.4106 151.613C48.1924 165.6 62.0538 178.022 79.1415 182.481C97.0975 187.166 118.8 188.142 133.373 176.653C147.881 165.216 141.006 140.683 151.47 125.46C162.499 109.415 189.597 106.574 194.496 87.7315Z" fill="url(#paint0_linear_0_1)"/>
<path d="M57.1143 123.886V30H45V136H151V123.886H57.1143Z" fill="#0F1F3C"/>
<path d="M111.211 89.0584L127.207 66.1688L121.673 62.3016L142.682 52.4808L140.684 75.5867L135.151 71.7201L114.049 101.916L91.4602 88.7901L74.6734 110.561L66.999 104.643L88.9777 76.1388L111.211 89.0584Z" fill="#0F1F3C"/>
<defs>
<linearGradient id="paint0_linear_0_1" x1="44.0641" y1="52.538" x2="157.388" y2="145.076" gradientUnits="userSpaceOnUse">
<stop stop-color="#FFA800"/>
<stop stop-color="#FA7C0B"/>
<stop offset="0.0001" stop-color="#FFA800"/>
<stop offset="0.484375" stop-color="#FD7828"/>
<stop offset="1" stop-color="#FA484F"/>
</linearGradient>
</defs>
</svg>
