<svg width="281" height="260" viewBox="0 0 281 260" fill="none" xmlns="http://www.w3.org/2000/svg">
<path d="M126.5 229.676C150.541 221.986 168.677 206.346 190.694 194.003C220.996 177.017 268.619 177.577 278.723 144.341C288.664 111.642 253.477 83.297 232.569 56.261C214.915 33.4323 196.738 8.19416 168.574 1.90429C142.014 -4.02716 119.105 17.8809 92.8547 25.0593C62.5737 33.3398 20.2308 19.8996 4.15744 46.8653C-11.877 73.7657 25.6309 103.716 27.3309 134.986C29.4912 174.722 -13.573 222.651 15.2083 250.133C43.3368 276.99 89.4575 241.524 126.5 229.676Z" fill="url(#paint0_linear_0_1)"/>
<path d="M214.618 117.809C214.618 166.857 174.857 206.618 125.809 206.618C76.7612 206.618 37 166.857 37 117.809C37 68.7612 76.7612 29 125.809 29C174.857 29 214.618 68.7612 214.618 117.809ZM53.2022 117.809C53.2022 157.909 85.7094 190.416 125.809 190.416C165.909 190.416 198.416 157.909 198.416 117.809C198.416 77.7094 165.909 45.2022 125.809 45.2022C85.7094 45.2022 53.2022 77.7094 53.2022 117.809Z" fill="#0F1F3C"/>
<path d="M125.809 61.2942C121.35 61.2942 117.735 64.9088 117.735 69.3677V121.577C117.735 121.577 117.735 123.682 118.758 125.265C119.443 126.608 120.51 127.774 121.913 128.584L159.211 150.119C163.072 152.348 168.01 151.024 170.239 147.163C172.468 143.301 171.146 138.364 167.284 136.134L133.882 116.85V69.3677C133.882 64.9089 130.268 61.2942 125.809 61.2942Z" fill="#0F1F3C"/>
<defs>
<linearGradient id="paint0_linear_0_1" x1="201.191" y1="59.2811" x2="82.6673" y2="224.555" gradientUnits="userSpaceOnUse">
<stop stop-color="#FFA800"/>
<stop stop-color="#FA7C0B"/>
<stop offset="0.0001" stop-color="#FFA800"/>
<stop offset="0.484375" stop-color="#FD7828"/>
<stop offset="1" stop-color="#FA484F"/>
</linearGradient>
</defs>
</svg>
