<svg width="329" height="283" viewBox="0 0 329 283" fill="none" xmlns="http://www.w3.org/2000/svg">
<path d="M159 279.685C189.357 271.307 193.803 229.425 218.778 210.241C246.004 189.329 290.332 194.722 307.966 165.267C328.602 130.798 338.007 81.925 315.535 48.6244C293.184 15.5043 243.994 21.3016 204.982 12.6631C172.778 5.53189 141.883 -3.27227 109.5 3.00091C71.2094 10.4186 24.7326 16.4866 6.70619 51.0733C-11.2499 85.5251 15.9782 124.958 26.4353 162.375C35.4979 194.802 37.9765 230.867 63.1909 253.18C88.7771 275.822 126.065 288.774 159 279.685Z" fill="url(#paint0_linear_0_1)"/>
<path d="M83.4993 56.4994H215.498V114.25H232V40H67V238H124.75V221.501H83.4993V56.4994Z" fill="#0F1F3C" stroke="black" stroke-width="0.651042"/>
<path d="M100 73H198.867V89.5262H100V73ZM100 106.055H182.388V122.581H100V106.055ZM100 139.107H149.434V155.633H100V139.107ZM217.045 126.98L141.31 202.941L141.193 237.883L176.265 238L252 162.039L217.045 126.98ZM228.697 162.039L222.968 167.785L211.314 156.099L217.045 150.351L228.697 162.039ZM211.319 179.471L182.208 208.669L170.556 196.983L199.667 167.785L211.319 179.471ZM157.726 221.411L157.765 209.81L158.904 208.667L170.556 220.353L169.463 221.449L157.726 221.411Z" fill="#0F1F3C" stroke="black" stroke-width="0.651042"/>
<defs>
<linearGradient id="paint0_linear_0_1" x1="235.821" y1="64.3576" x2="110.172" y2="252.764" gradientUnits="userSpaceOnUse">
<stop stop-color="#FFA800"/>
<stop stop-color="#FA7C0B"/>
<stop offset="0.0001" stop-color="#FFA800"/>
<stop offset="0.484375" stop-color="#FD7828"/>
<stop offset="1" stop-color="#FA484F"/>
</linearGradient>
</defs>
</svg>
