<svg width="38" height="42" viewBox="0 0 38 42" fill="none" xmlns="http://www.w3.org/2000/svg">
<g clip-path="url(#clip0_10_18)">
<path d="M19.0409 29.9525C17.4865 30.1402 27.0528 25.9906 26.4564 27.1861C25.5081 29.0435 32.4243 40.4451 31.4564 42.2926C31.0654 43.0336 12.002 42.431 10.8875 42.2926C8.76611 42.0358 3.04705 47.287 1.346 46.793C-0.208415 46.3385 2.33339 40.1882 1.346 39.6152C1.17003 39.5164 1.06249 39.3286 1.06249 39.1212V24.8346C1.06249 24.6173 1.1798 24.4197 1.37533 24.3308C1.5513 24.2418 1.7566 24.2517 1.91302 24.3505C3.26213 25.2002 4.95341 25.9017 7.00641 26.4648C9.18649 27.0675 10.8462 26.2139 13.4564 26.293C16.2524 20.6034 20.0863 26.372 20.9564 26.293C21.5821 26.2337 18.1806 27.2849 18.5814 27.1861C18.8258 27.1268 19.0018 26.8996 19.0018 26.6328V25.7535C19.0018 25.4176 18.7183 25.1607 18.3956 25.1903C18.1415 25.2101 17.8677 25.2298 17.5745 25.2496C17.0172 25.2891 16.5088 25.3089 16.0298 25.3089C10.8387 25.3089 3.04649 44.2192 0.455799 42.2926C-2.14466 40.3858 -2.5 17.0689 -2.5 13.3837C-2.5 10.2912 1.57085 8.5326 3.28168 6.06259C4.43527 4.42251 5.6964 2.82194 7.28014 1.57706C8.09156 0.944734 9.23537 -0.102552 10.3107 0.44085C11.9629 1.26089 12.9992 3.81982 13.8302 5.34135C14.8371 7.16915 15.7854 9.04635 16.9879 10.7457C17.7406 11.8128 18.8747 13.3837 20.3313 13.3837C23.9387 13.3837 27.2724 -0.102552 29.824 0.342049C32.2094 0.75701 34.2233 1.32017 35.8754 2.0513C36.0807 2.14022 36.2176 2.3477 36.2176 2.57494V16.8417C36.2176 17.0689 36.0807 17.2764 35.8754 17.3653L35.7483 17.4147C35.5919 17.4839 35.416 17.474 35.2693 17.395C34.0082 16.733 32.4733 16.1896 30.6647 15.7747C28.7388 15.3301 26.637 15.1127 24.3396 15.1127C23.3522 15.1127 22.4234 15.172 21.5729 15.2905C21.0157 15.3696 20.5855 15.4585 20.2727 15.5474C20.038 15.6166 19.8719 15.8438 19.8719 16.0908V16.8911C19.8719 17.2171 20.1554 17.4839 20.478 17.4543C20.7419 17.4345 21.0352 17.4147 21.3578 17.3851C21.9542 17.3456 15.0081 17.7928 15.9564 17.7928C-82.0439 -19.707 35.4439 -2.15343 37.9564 -0.207066C44.2132 4.62427 43.3738 37.511 38.4564 42.2929C36.9802 43.7255 29.1885 43.6264 27.2822 41.4924C25.806 39.8424 24.9848 37.5403 24.0072 35.5841C23.1175 33.7958 22.4821 31.6716 20.781 30.4761C20.3216 30.1501 19.7741 29.913 19.2168 29.9229C19.168 29.9327 19.0995 29.9426 19.0409 29.9525Z" fill="url(#paint0_linear_10_18)"/>
<path d="M29.1234 15.998L21.4966 9.8966C20.0062 8.70892 17.6774 8.69728 16.1986 9.88496L8.5718 15.998C7.47727 16.8713 6.81356 18.6179 7.04644 19.9919L8.51358 28.7714C8.85125 30.7392 10.6793 32.2878 12.6705 32.2878H25.0131C26.9809 32.2878 28.8439 30.7043 29.1816 28.7597L30.6487 19.9802C30.8583 18.6179 30.1946 16.8713 29.1234 15.998ZM19.7151 27.6303C19.7151 28.1077 19.3192 28.5036 18.8418 28.5036C18.3644 28.5036 17.9685 28.1077 17.9685 27.6303V24.1371C17.9685 23.6597 18.3644 23.2638 18.8418 23.2638C19.3192 23.2638 19.7151 23.6597 19.7151 24.1371V27.6303Z" fill="#292D32"/>
</g>
<defs>
<linearGradient id="paint0_linear_10_18" x1="23.9027" y1="5.90534" x2="0.93836" y2="42.5475" gradientUnits="userSpaceOnUse">
<stop stop-color="#FFA800"/>
<stop stop-color="#FFA800"/>
<stop offset="0.0001" stop-color="#FFA800"/>
<stop offset="0.49721" stop-color="#FFA800"/>
</linearGradient>
<clipPath id="clip0_10_18">
<rect width="38" height="42" rx="7" fill="white"/>
</clipPath>
</defs>
</svg>
