<svg width="1440" height="867" viewBox="0 0 1440 867" fill="none" xmlns="http://www.w3.org/2000/svg">
<g filter="url(#filter0_f_0_1)">
<path d="M-426.36 809.333C-433.015 666.481 -109.378 325.829 -102.393 564.257C-95.4088 802.685 -55.6122 535.766 243.019 631.972C541.649 728.178 249.385 1034.15 -8.4666 1046.16C-266.318 1058.17 -419.704 952.185 -426.36 809.333Z" fill="#FFA800"/>
</g>
<g filter="url(#filter1_f_0_1)">
<path d="M1542 107.861C1542 257.485 1392.21 597.753 1394.03 348.224C1395.85 98.695 1372.8 375.723 1243.03 260.634C1113.25 145.545 1248.48 -160 1362.49 -160C1476.5 -160 1542 -41.7619 1542 107.861Z" fill="#FA484F"/>
</g>
<defs>
<filter id="filter0_f_0_1" x="-576.461" y="331.862" width="1095.59" height="865.225" filterUnits="userSpaceOnUse" color-interpolation-filters="sRGB">
<feFlood flood-opacity="0" result="BackgroundImageFix"/>
<feBlend mode="normal" in="SourceGraphic" in2="BackgroundImageFix" result="shape"/>
<feGaussianBlur stdDeviation="75" result="effect1_foregroundBlur_0_1"/>
</filter>
<filter id="filter1_f_0_1" x="1040" y="-310" width="652" height="897" filterUnits="userSpaceOnUse" color-interpolation-filters="sRGB">
<feFlood flood-opacity="0" result="BackgroundImageFix"/>
<feBlend mode="normal" in="SourceGraphic" in2="BackgroundImageFix" result="shape"/>
<feGaussianBlur stdDeviation="75" result="effect1_foregroundBlur_0_1"/>
</filter>
</defs>
</svg>
